<svg width="1520" height="260" viewBox="0 0 1520 260" fill="none" xmlns="http://www.w3.org/2000/svg">
<g clip-path="url(#clip0_9025_726)">
<path d="M1423.73 269.64C1415.89 269.64 1409.41 267.64 1404.29 263.64C1399.17 259.48 1395.33 253.96 1392.77 247.08C1390.37 240.2 1389.17 232.44 1389.17 223.8C1389.17 208.44 1391.57 194.84 1396.37 183C1401.33 171 1408.85 161.56 1418.93 154.68C1429.01 147.8 1441.65 144.36 1456.85 144.36C1458.45 144.36 1460.53 144.44 1463.09 144.6C1465.65 144.6 1467.65 144.76 1469.09 145.08C1469.73 138.2 1470.29 132.36 1470.77 127.56C1471.41 122.76 1471.89 118.68 1472.21 115.32C1472.69 111.96 1473.17 109.32 1473.65 107.4C1470.93 107.56 1467.89 107.72 1464.53 107.88C1461.33 107.88 1458.69 107.96 1456.61 108.12L1457.57 92.76C1464.93 92.76 1470.93 92.44 1475.57 91.8C1480.21 91 1483.81 90.04 1486.37 88.92C1489.09 87.8 1491.01 86.76 1492.13 85.8H1503.17C1501.73 97.16 1500.21 109.24 1498.61 122.04C1497.17 134.68 1495.57 148.44 1493.81 163.32C1492.69 173.88 1491.49 184.28 1490.21 194.52C1489.09 204.6 1488.13 213.72 1487.33 221.88C1486.69 230.04 1486.37 236.68 1486.37 241.8C1486.37 244.84 1486.69 247.08 1487.33 248.52C1488.13 249.96 1489.33 250.68 1490.93 250.68C1493.01 250.68 1495.17 249.24 1497.41 246.36C1499.81 243.32 1502.13 237.96 1504.37 230.28L1515.41 233.4C1514.77 236.6 1513.65 240.28 1512.05 244.44C1510.61 248.6 1508.61 252.6 1506.05 256.44C1503.49 260.28 1500.29 263.48 1496.45 266.04C1492.77 268.44 1488.37 269.64 1483.25 269.64C1477.65 269.64 1473.09 267.96 1469.57 264.6C1466.05 261.24 1464.29 255.64 1464.29 247.8C1464.29 244.12 1464.45 240.84 1464.77 237.96C1465.09 235.08 1465.57 231.72 1466.21 227.88H1465.73C1461.73 239.08 1457.33 247.72 1452.53 253.8C1447.73 259.88 1442.85 264.04 1437.89 266.28C1432.93 268.52 1428.21 269.64 1423.73 269.64ZM1431.41 251.4C1435.73 251.4 1439.81 249.08 1443.65 244.44C1447.49 239.8 1451.01 233.56 1454.21 225.72C1457.41 217.88 1459.97 209.16 1461.89 199.56C1463.17 193.8 1464.21 187.64 1465.01 181.08C1465.81 174.52 1466.61 167.48 1467.41 159.96C1465.81 159.32 1463.57 158.84 1460.69 158.52C1457.81 158.04 1455.41 157.8 1453.49 157.8C1447.57 157.8 1442.53 159.32 1438.37 162.36C1434.21 165.24 1430.77 169.16 1428.05 174.12C1425.49 178.92 1423.41 184.2 1421.81 189.96C1420.37 195.72 1419.33 201.48 1418.69 207.24C1418.21 212.84 1417.97 217.88 1417.97 222.36C1417.97 231.48 1419.09 238.6 1421.33 243.72C1423.57 248.84 1426.93 251.4 1431.41 251.4Z" fill="#0D0D0D"/>
<path d="M1294.32 267C1294 264.44 1293.84 262.6 1293.84 261.48C1293.84 260.2 1293.84 258.76 1293.84 257.16C1293.84 254.12 1294 250.44 1294.32 246.12C1294.64 241.64 1295.04 236.52 1295.52 230.76C1296.16 225 1296.88 218.68 1297.68 211.8C1298.64 204.6 1299.44 198.36 1300.08 193.08C1300.88 187.8 1301.44 183.48 1301.76 180.12C1302.08 176.6 1302.24 173.88 1302.24 171.96C1302.4 169.08 1302.08 166.92 1301.28 165.48C1300.64 164.04 1299.52 163.32 1297.92 163.32C1295.84 163.32 1293.6 164.84 1291.2 167.88C1288.8 170.76 1286.56 176.04 1284.48 183.72L1273.44 180.6C1274.08 177.4 1275.12 173.72 1276.56 169.56C1278 165.4 1280 161.4 1282.56 157.56C1285.12 153.72 1288.24 150.6 1291.92 148.2C1295.6 145.64 1300 144.36 1305.12 144.36C1311.04 144.36 1315.76 146.2 1319.28 149.88C1322.8 153.56 1324.56 159.64 1324.56 168.12C1324.4 171 1324.08 174.36 1323.6 178.2C1323.12 181.88 1322.48 186.04 1321.68 190.68H1322.16C1326.48 177.88 1330.96 168.2 1335.6 161.64C1340.4 154.92 1345.12 150.36 1349.76 147.96C1354.56 145.56 1359.12 144.36 1363.44 144.36C1369.04 144.36 1373.6 145.88 1377.12 148.92C1380.64 151.96 1382.4 156.04 1382.4 161.16C1382.4 164.84 1381.04 168.2 1378.32 171.24C1375.76 174.28 1372.32 175.8 1368 175.8C1364.8 175.8 1361.92 174.76 1359.36 172.68C1356.8 170.6 1355.52 167.8 1355.52 164.28C1352.32 163.64 1349.04 165.16 1345.68 168.84C1342.48 172.36 1339.36 177.32 1336.32 183.72C1333.44 190.12 1330.88 197.24 1328.64 205.08C1326.4 212.92 1324.56 220.92 1323.12 229.08C1321.84 237.24 1321.2 244.92 1321.2 252.12C1321.2 254.2 1321.28 256.76 1321.44 259.8C1321.6 262.68 1321.76 265.08 1321.92 267H1294.32Z" fill="#0D0D0D"/>
<path d="M1216.12 144.36C1220.6 144.36 1225.8 144.76 1231.72 145.56C1237.64 146.36 1243.64 147.56 1249.72 149.16C1248.76 156.2 1247.64 164.2 1246.36 173.16C1245.24 182.12 1244.04 191.08 1242.76 200.04C1241.64 208.84 1240.68 216.92 1239.88 224.28C1239.24 231.64 1238.92 237.32 1238.92 241.32C1238.92 244.36 1239.24 246.68 1239.88 248.28C1240.52 249.88 1241.72 250.68 1243.48 250.68C1245.56 250.68 1247.8 249.24 1250.2 246.36C1252.76 243.32 1255.16 237.96 1257.4 230.28L1268.2 233.4C1267.72 236.6 1266.68 240.28 1265.08 244.44C1263.48 248.6 1261.32 252.6 1258.6 256.44C1256.04 260.28 1252.84 263.48 1249 266.04C1245.16 268.44 1240.68 269.64 1235.56 269.64C1230.12 269.64 1225.64 267.96 1222.12 264.6C1218.6 261.24 1216.84 255.64 1216.84 247.8C1216.84 244.92 1217 241.72 1217.32 238.2C1217.8 234.68 1218.36 231.24 1219 227.88H1218.52C1215.32 236.36 1211.96 243.4 1208.44 249C1204.92 254.44 1201.32 258.68 1197.64 261.72C1193.96 264.76 1190.28 266.84 1186.6 267.96C1182.92 269.08 1179.32 269.64 1175.8 269.64C1167 269.64 1159.56 266.2 1153.48 259.32C1147.4 252.44 1144.36 241.56 1144.36 226.68C1144.36 215.48 1145.88 205 1148.92 195.24C1152.12 185.32 1156.76 176.52 1162.84 168.84C1168.92 161.16 1176.36 155.16 1185.16 150.84C1194.12 146.52 1204.44 144.36 1216.12 144.36ZM1207.72 157.8C1202.28 157.8 1197.4 159.48 1193.08 162.84C1188.76 166.04 1185.08 170.68 1182.04 176.76C1179 182.68 1176.68 189.8 1175.08 198.12C1173.64 206.44 1172.92 215.72 1172.92 225.96C1172.92 233.8 1173.8 240.12 1175.56 244.92C1177.48 249.56 1180.36 251.88 1184.2 251.88C1188.04 251.88 1191.72 249.96 1195.24 246.12C1198.76 242.28 1201.96 237.08 1204.84 230.52C1207.72 223.96 1210.28 216.68 1212.52 208.68C1214.76 200.52 1216.6 192.28 1218.04 183.96C1219.48 175.48 1220.28 167.4 1220.44 159.72C1219.16 159.24 1217.32 158.84 1214.92 158.52C1212.52 158.04 1210.12 157.8 1207.72 157.8Z" fill="#0D0D0D"/>
<path d="M1042.47 269.64C1034.63 269.64 1028.15 267.64 1023.03 263.64C1017.91 259.48 1014.07 253.96 1011.51 247.08C1009.11 240.2 1007.91 232.44 1007.91 223.8C1007.91 208.44 1010.31 194.84 1015.11 183C1020.07 171 1027.59 161.56 1037.67 154.68C1047.75 147.8 1060.39 144.36 1075.59 144.36C1077.19 144.36 1079.27 144.44 1081.83 144.6C1084.39 144.6 1086.39 144.76 1087.83 145.08C1088.47 138.2 1089.03 132.36 1089.51 127.56C1090.15 122.76 1090.63 118.68 1090.95 115.32C1091.43 111.96 1091.91 109.32 1092.39 107.4C1089.67 107.56 1086.63 107.72 1083.27 107.88C1080.07 107.88 1077.43 107.96 1075.35 108.12L1076.31 92.76C1083.67 92.76 1089.67 92.44 1094.31 91.8C1098.95 91 1102.55 90.04 1105.11 88.92C1107.83 87.8 1109.75 86.76 1110.87 85.8H1121.91C1120.47 97.16 1118.95 109.24 1117.35 122.04C1115.91 134.68 1114.31 148.44 1112.55 163.32C1111.43 173.88 1110.23 184.28 1108.95 194.52C1107.83 204.6 1106.87 213.72 1106.07 221.88C1105.43 230.04 1105.11 236.68 1105.11 241.8C1105.11 244.84 1105.43 247.08 1106.07 248.52C1106.87 249.96 1108.07 250.68 1109.67 250.68C1111.75 250.68 1113.91 249.24 1116.15 246.36C1118.55 243.32 1120.87 237.96 1123.11 230.28L1134.15 233.4C1133.51 236.6 1132.39 240.28 1130.79 244.44C1129.35 248.6 1127.35 252.6 1124.79 256.44C1122.23 260.28 1119.03 263.48 1115.19 266.04C1111.51 268.44 1107.11 269.64 1101.99 269.64C1096.39 269.64 1091.83 267.96 1088.31 264.6C1084.79 261.24 1083.03 255.64 1083.03 247.8C1083.03 244.12 1083.19 240.84 1083.51 237.96C1083.83 235.08 1084.31 231.72 1084.95 227.88H1084.47C1080.47 239.08 1076.07 247.72 1071.27 253.8C1066.47 259.88 1061.59 264.04 1056.63 266.28C1051.67 268.52 1046.95 269.64 1042.47 269.64ZM1050.15 251.4C1054.47 251.4 1058.55 249.08 1062.39 244.44C1066.23 239.8 1069.75 233.56 1072.95 225.72C1076.15 217.88 1078.71 209.16 1080.63 199.56C1081.91 193.8 1082.95 187.64 1083.75 181.08C1084.55 174.52 1085.35 167.48 1086.15 159.96C1084.55 159.32 1082.31 158.84 1079.43 158.52C1076.55 158.04 1074.15 157.8 1072.23 157.8C1066.31 157.8 1061.27 159.32 1057.11 162.36C1052.95 165.24 1049.51 169.16 1046.79 174.12C1044.23 178.92 1042.15 184.2 1040.55 189.96C1039.11 195.72 1038.07 201.48 1037.43 207.24C1036.95 212.84 1036.71 217.88 1036.71 222.36C1036.71 231.48 1037.83 238.6 1040.07 243.72C1042.31 248.84 1045.67 251.4 1050.15 251.4Z" fill="#0D0D0D"/>
<path d="M961.513 269.64C953.033 269.64 947.272 267.4 944.232 262.92C941.352 258.28 939.912 251.96 939.912 243.96C939.912 239.16 940.232 233.8 940.872 227.88C941.512 221.8 942.232 215.56 943.032 209.16C943.992 202.6 944.792 196.36 945.432 190.44C946.072 184.36 946.393 179 946.393 174.36C946.393 172.12 946.152 170.12 945.672 168.36C945.192 166.6 944.312 165.24 943.032 164.28C941.912 163.32 940.312 162.84 938.232 162.84C934.712 162.84 931.192 164.76 927.672 168.6C924.152 172.28 920.712 177.32 917.352 183.72C914.152 189.96 911.272 196.92 908.712 204.6C906.152 212.28 904.072 220.2 902.472 228.36C901.032 236.36 900.312 243.96 900.312 251.16C900.312 253.4 900.392 256.12 900.552 259.32C900.712 262.52 900.872 265.08 901.032 267H873.672C873.352 264.44 873.113 262.6 872.953 261.48C872.953 260.2 872.953 258.76 872.953 257.16C872.953 254.12 873.112 250.52 873.432 246.36C873.912 242.04 874.472 237.08 875.112 231.48C875.752 225.88 876.472 219.64 877.272 212.76C878.072 206.68 878.713 201.4 879.193 196.92C879.833 192.44 880.313 188.6 880.633 185.4C881.113 182.04 881.432 179.24 881.592 177C881.752 174.6 881.833 172.6 881.833 171C881.833 168.28 881.433 166.36 880.633 165.24C879.993 163.96 878.953 163.32 877.513 163.32C875.433 163.32 873.192 164.84 870.792 167.88C868.392 170.76 866.153 176.04 864.073 183.72L853.032 180.6C853.672 177.4 854.712 173.72 856.152 169.56C857.592 165.4 859.592 161.4 862.152 157.56C864.712 153.72 867.833 150.6 871.513 148.2C875.193 145.64 879.592 144.36 884.712 144.36C888.872 144.36 892.392 145.32 895.272 147.24C898.312 149 900.552 151.72 901.992 155.4C903.592 158.92 904.312 163.48 904.152 169.08C903.992 172.6 903.673 175.72 903.193 178.44C902.873 181.16 902.472 183.96 901.992 186.84H902.472C906.792 175.48 911.352 166.76 916.152 160.68C920.952 154.44 925.832 150.2 930.792 147.96C935.752 145.56 940.632 144.36 945.432 144.36C952.152 144.36 957.513 145.88 961.513 148.92C965.673 151.8 968.713 155.88 970.633 161.16C972.553 166.44 973.513 172.52 973.513 179.4C973.513 186.12 972.953 193.4 971.833 201.24C970.873 208.92 969.832 216.44 968.712 223.8C967.592 231 967.032 237.4 967.032 243C967.032 245.56 967.432 247.48 968.232 248.76C969.032 250.04 970.152 250.68 971.592 250.68C973.672 250.68 975.913 249.24 978.312 246.36C980.712 243.32 982.952 237.96 985.032 230.28L996.073 233.4C995.433 236.6 994.232 240.28 992.472 244.44C990.712 248.6 988.393 252.6 985.513 256.44C982.633 260.28 979.193 263.48 975.193 266.04C971.193 268.44 966.633 269.64 961.513 269.64Z" fill="#0D0D0D"/>
<path d="M795.714 144.36C800.194 144.36 805.394 144.76 811.314 145.56C817.234 146.36 823.234 147.56 829.314 149.16C828.354 156.2 827.234 164.2 825.954 173.16C824.834 182.12 823.634 191.08 822.354 200.04C821.234 208.84 820.274 216.92 819.474 224.28C818.834 231.64 818.514 237.32 818.514 241.32C818.514 244.36 818.834 246.68 819.474 248.28C820.114 249.88 821.314 250.68 823.074 250.68C825.154 250.68 827.394 249.24 829.794 246.36C832.354 243.32 834.754 237.96 836.994 230.28L847.794 233.4C847.314 236.6 846.274 240.28 844.674 244.44C843.074 248.6 840.914 252.6 838.194 256.44C835.634 260.28 832.434 263.48 828.594 266.04C824.754 268.44 820.274 269.64 815.154 269.64C809.714 269.64 805.234 267.96 801.714 264.6C798.194 261.24 796.434 255.64 796.434 247.8C796.434 244.92 796.594 241.72 796.914 238.2C797.394 234.68 797.954 231.24 798.594 227.88H798.114C794.914 236.36 791.554 243.4 788.034 249C784.514 254.44 780.914 258.68 777.234 261.72C773.554 264.76 769.874 266.84 766.194 267.96C762.514 269.08 758.914 269.64 755.394 269.64C746.594 269.64 739.154 266.2 733.074 259.32C726.994 252.44 723.954 241.56 723.954 226.68C723.954 215.48 725.474 205 728.514 195.24C731.714 185.32 736.354 176.52 742.434 168.84C748.514 161.16 755.954 155.16 764.754 150.84C773.714 146.52 784.034 144.36 795.714 144.36ZM787.314 157.8C781.874 157.8 776.994 159.48 772.674 162.84C768.354 166.04 764.674 170.68 761.634 176.76C758.594 182.68 756.274 189.8 754.674 198.12C753.234 206.44 752.514 215.72 752.514 225.96C752.514 233.8 753.394 240.12 755.154 244.92C757.074 249.56 759.954 251.88 763.794 251.88C767.634 251.88 771.314 249.96 774.834 246.12C778.354 242.28 781.554 237.08 784.434 230.52C787.314 223.96 789.874 216.68 792.114 208.68C794.354 200.52 796.194 192.28 797.634 183.96C799.074 175.48 799.874 167.4 800.034 159.72C798.754 159.24 796.914 158.84 794.514 158.52C792.114 158.04 789.714 157.8 787.314 157.8Z" fill="#0D0D0D"/>
<path d="M680.09 111.48L675.53 147H708.17L706.97 161.16L674.09 161.64C673.45 167.72 672.73 174.2 671.93 181.08C671.13 187.8 670.41 194.44 669.77 201C669.29 207.56 668.81 213.64 668.33 219.24C667.85 224.68 667.61 229.16 667.61 232.68C667.61 235.08 667.85 237.64 668.33 240.36C668.81 243.08 669.85 245.4 671.45 247.32C673.05 249.24 675.61 250.2 679.13 250.2C680.57 250.2 682.49 249.88 684.89 249.24C687.29 248.44 689.93 247 692.81 244.92C695.69 242.68 698.41 239.24 700.97 234.6L711.29 241.08C706.17 250.52 700.09 257.64 693.05 262.44C686.01 267.24 678.25 269.64 669.77 269.64C661.77 269.64 655.69 267.96 651.53 264.6C647.37 261.24 644.57 256.84 643.13 251.4C641.69 245.96 640.97 240.28 640.97 234.36C641.29 228.6 641.69 221.8 642.17 213.96C642.65 206.12 643.29 197.72 644.09 188.76C644.89 179.64 645.77 170.68 646.73 161.88L626.81 162.12L628.49 147C640.17 147 648.73 143.96 654.17 137.88C659.77 131.64 663.85 122.84 666.41 111.48H680.09Z" fill="#0D0D0D"/>
<path d="M547.854 270.84C541.774 270.84 534.894 269.88 527.214 267.96C519.694 266.2 512.894 263.4 506.814 259.56L507.054 269.16H490.494L492.894 214.68H506.574C507.214 223.8 509.454 231.48 513.294 237.72C517.134 243.8 522.174 248.36 528.414 251.4C534.814 254.44 541.854 255.96 549.534 255.96C555.454 255.96 560.814 254.92 565.614 252.84C570.414 250.6 574.254 247.64 577.134 243.96C580.014 240.12 581.614 235.8 581.934 231C582.254 224.6 580.494 219.32 576.654 215.16C572.814 210.84 567.854 207.24 561.774 204.36C555.694 201.32 549.374 198.36 542.814 195.48C533.694 191.64 525.294 187.32 517.614 182.52C510.094 177.72 504.174 171.96 499.854 165.24C495.694 158.36 493.854 149.88 494.334 139.8C494.654 135.16 495.774 130.28 497.694 125.16C499.774 119.88 502.974 115 507.294 110.52C511.614 106.04 517.294 102.36 524.334 99.48C531.374 96.6 540.094 95.16 550.494 95.16C556.734 95.16 563.614 96.12 571.134 98.04C578.654 99.8 585.134 102.76 590.574 106.92L590.334 96.84H606.654L604.014 151.8H590.574C589.934 143.32 588.014 135.96 584.814 129.72C581.614 123.32 577.134 118.44 571.374 115.08C565.774 111.56 558.894 109.8 550.734 109.8C542.894 109.8 536.174 112.04 530.574 116.52C525.134 121 522.254 126.52 521.934 133.08C521.774 138.52 523.054 143.24 525.774 147.24C528.494 151.08 532.574 154.68 538.014 158.04C543.454 161.24 550.094 164.52 557.934 167.88C564.014 170.44 570.174 173.32 576.414 176.52C582.654 179.72 588.414 183.48 593.694 187.8C598.974 191.96 603.134 197 606.174 202.92C609.374 208.68 610.734 215.48 610.254 223.32C609.934 232.6 607.134 240.84 601.854 248.04C596.574 255.24 589.294 260.84 580.014 264.84C570.894 268.84 560.174 270.84 547.854 270.84Z" fill="#0D0D0D"/>
<path d="M366.084 144.36C372.644 144.36 378.564 145.4 383.844 147.48C389.284 149.4 393.524 152.52 396.564 156.84C399.604 161.16 401.124 166.76 401.124 173.64C401.124 180.2 399.044 185.8 394.884 190.44C390.884 195.08 385.524 198.92 378.804 201.96C372.244 204.84 365.124 207.24 357.444 209.16C349.764 211.08 342.324 212.44 335.124 213.24C335.124 222.68 336.164 230.2 338.244 235.8C340.324 241.24 343.124 245.16 346.644 247.56C350.324 249.8 354.324 250.92 358.644 250.92C362.004 250.92 365.684 250.28 369.684 249C373.844 247.56 377.924 245 381.924 241.32C385.924 237.64 389.444 232.52 392.484 225.96L404.004 231.72C399.524 241.48 394.564 249.16 389.124 254.76C383.684 260.2 377.924 264.04 371.844 266.28C365.764 268.52 359.444 269.64 352.884 269.64C338.004 269.8 326.484 265.4 318.324 256.44C310.164 247.48 306.084 234.52 306.084 217.56C306.084 209.24 307.284 200.84 309.684 192.36C312.084 183.72 315.684 175.8 320.484 168.6C325.444 161.4 331.684 155.56 339.204 151.08C346.724 146.6 355.684 144.36 366.084 144.36ZM363.204 157.56C357.124 157.56 352.164 159.72 348.324 164.04C344.484 168.2 341.524 173.56 339.444 180.12C337.524 186.52 336.244 193.16 335.604 200.04C344.244 198.6 351.524 196.52 357.444 193.8C363.364 190.92 367.924 187.56 371.124 183.72C374.324 179.88 375.924 175.64 375.924 171C375.764 166.68 374.484 163.4 372.084 161.16C369.684 158.76 366.724 157.56 363.204 157.56Z" fill="#0D0D0D"/>
<path d="M259.946 269.64C251.626 269.64 245.946 267.4 242.906 262.92C239.866 258.28 238.346 251.96 238.346 243.96C238.346 239.16 238.666 233.8 239.306 227.88C239.946 221.8 240.666 215.56 241.466 209.16C242.266 202.6 242.986 196.36 243.626 190.44C244.266 184.36 244.586 179 244.586 174.36C244.586 172.12 244.266 170.12 243.626 168.36C243.146 166.6 242.346 165.24 241.226 164.28C240.106 163.32 238.426 162.84 236.186 162.84C232.826 162.84 229.386 164.68 225.866 168.36C222.346 172.04 218.906 177 215.546 183.24C212.346 189.48 209.466 196.44 206.906 204.12C204.346 211.8 202.266 219.72 200.666 227.88C199.226 236.04 198.506 243.8 198.506 251.16C198.506 253.4 198.586 256.12 198.746 259.32C198.906 262.52 199.066 265.08 199.226 267H172.106C171.946 264.44 171.786 262.6 171.626 261.48C171.626 260.2 171.626 258.76 171.626 257.16C171.626 250.6 171.786 242.84 172.106 233.88C172.586 224.92 173.066 215.56 173.546 205.8C174.186 195.88 174.906 186.04 175.706 176.28C176.506 166.52 177.306 157.4 178.106 148.92C178.906 140.28 179.706 132.76 180.506 126.36C180.986 123.16 181.466 119.88 181.946 116.52C182.426 113.16 182.906 110.12 183.386 107.4L166.586 108.12L167.546 92.76C174.906 92.76 180.906 92.44 185.546 91.8C190.186 91 193.786 90.04 196.346 88.92C198.906 87.8 200.826 86.76 202.106 85.8H212.906C212.426 90.28 211.786 95.48 210.986 101.4C210.186 107.32 209.386 113.08 208.586 118.68C207.946 124.28 207.386 128.76 206.906 132.12C206.586 134.2 206.186 137.4 205.706 141.72C205.226 146.04 204.666 150.84 204.026 156.12C203.386 161.4 202.746 166.68 202.106 171.96C201.466 177.24 200.746 182.04 199.946 186.36H200.426C204.586 175.16 209.066 166.52 213.866 160.44C218.826 154.36 223.786 150.2 228.746 147.96C233.866 145.56 238.746 144.36 243.386 144.36C253.466 144.36 260.666 147.64 264.986 154.2C269.466 160.6 271.706 169 271.706 179.4C271.706 186.12 271.226 193.4 270.266 201.24C269.306 208.92 268.266 216.44 267.146 223.8C266.026 231 265.466 237.4 265.466 243C265.466 245.56 265.786 247.48 266.426 248.76C267.226 250.04 268.426 250.68 270.026 250.68C272.106 250.68 274.346 249.24 276.746 246.36C279.146 243.32 281.466 237.96 283.706 230.28L294.266 233.4C293.626 236.6 292.426 240.28 290.666 244.44C289.066 248.6 286.826 252.6 283.946 256.44C281.066 260.28 277.626 263.48 273.626 266.04C269.786 268.44 265.226 269.64 259.946 269.64Z" fill="#0D0D0D"/>
<path d="M153.56 99L152.12 152.04H138.68C139 143.08 138.2 135.72 136.28 129.96C134.36 124.04 131.24 119.64 126.92 116.76C122.76 113.88 117.32 112.52 110.6 112.68H95.96L89.48 231.24C89.32 235.56 89 239.56 88.52 243.24C88.2 246.92 87.88 249.8 87.56 251.88C89.48 251.72 91.64 251.64 94.04 251.64C96.6 251.48 99 251.4 101.24 251.4C103.64 251.24 105.56 251.16 107 251.16L106.28 267H41.24L42.2 253.8C46.36 253.64 49.64 252.84 52.04 251.4C54.6 249.96 56.52 247.56 57.8 244.2C59.08 240.84 59.88 236.12 60.2 230.04L66.68 112.92H51.08C41.64 113.08 34.28 116.28 29 122.52C23.72 128.76 20.76 138.6 20.12 152.04H6.44L10.52 99H153.56Z" fill="#0D0D0D"/>
</g>
<defs>
<clipPath id="clip0_9025_726">
<rect width="1520" height="260" fill="white"/>
</clipPath>
</defs>
</svg>
