<svg width="341" height="71" viewBox="0 0 341 71" fill="none" xmlns="http://www.w3.org/2000/svg">
<path d="M98.7242 12.7778L83.3213 51.3901H90.1597L93.2016 43.6624H109.52L112.509 51.3901H119.509L104.135 12.7778H98.7242ZM95.574 37.4966L101.362 22.7139L107.098 37.4966H95.574Z" fill="#1D1D1E"/>
<path d="M154.514 23.8721C152.664 23.8721 150.961 24.2987 149.399 25.1518C147.837 26.005 146.678 27.16 145.924 28.6104C144.326 25.4504 141.543 23.8721 137.576 23.8721C135.978 23.8721 134.439 24.2166 132.959 24.909C131.479 25.6014 130.281 26.7105 129.366 28.233V24.4365H123.252V51.3899H129.366V36.2823C129.366 34.1297 129.953 32.5054 131.128 31.4094C132.303 30.3135 133.717 29.7655 135.367 29.7655C137.198 29.7655 138.642 30.343 139.702 31.5013C140.762 32.6597 141.29 34.2511 141.29 36.279V51.3866H147.456V36.279C147.456 34.1264 148.04 32.5022 149.205 31.4062C150.373 30.3102 151.791 29.7622 153.461 29.7622C155.272 29.7622 156.7 30.3397 157.743 31.498C158.783 32.6564 159.305 34.2479 159.305 36.2758V51.3833H165.553V34.9041C165.553 31.5473 164.536 28.8664 162.498 26.8647C160.46 24.8729 157.799 23.8721 154.514 23.8721Z" fill="#1D1D1E"/>
<path d="M193.75 25.7556C191.784 24.4988 189.625 23.8721 187.273 23.8721C185.12 23.8721 183.223 24.338 181.592 25.2732C179.958 26.2084 178.646 27.544 177.661 29.2864V24.4398H171.548V60.8173H177.661V46.5465C178.649 48.2693 179.958 49.5982 181.592 50.5302C183.227 51.4654 185.12 51.9313 187.273 51.9313C190.846 51.9313 193.878 50.5695 196.375 47.8525C198.869 45.1323 200.116 41.8246 200.116 37.9296C200.116 35.3799 199.545 33.0305 198.406 30.8746C197.268 28.7187 195.716 27.0124 193.75 25.7556ZM191.716 43.7016C190.137 45.2898 188.208 46.0839 185.927 46.0839C183.558 46.0839 181.586 45.3029 180.017 43.7409C178.446 42.179 177.661 40.2397 177.661 37.923C177.661 35.5703 178.446 33.6145 180.017 32.0526C181.589 30.4906 183.558 29.7097 185.927 29.7097C188.208 29.7097 190.137 30.5038 191.716 32.092C193.297 33.6802 194.085 35.6228 194.085 37.923C194.088 40.1905 193.297 42.1134 191.716 43.7016Z" fill="#1D1D1E"/>
<path d="M211.079 12.7778H204.966V51.3901H211.079V12.7778Z" fill="#1D1D1E"/>
<path d="M223.128 24.4365H217.015V51.3899H223.128V24.4365Z" fill="#1D1D1E"/>
<path d="M220.113 11.915C219.037 11.915 218.111 12.3022 217.34 13.0734C216.569 13.8445 216.182 14.76 216.182 15.8199C216.182 16.9159 216.566 17.8478 217.34 18.6222C218.111 19.3933 219.037 19.7806 220.113 19.7806C221.189 19.7806 222.121 19.3933 222.902 18.6222C223.683 17.8511 224.074 16.9159 224.074 15.8199C224.074 14.76 223.683 13.8445 222.902 13.0734C222.118 12.3022 221.189 11.915 220.113 11.915Z" fill="#1D1D1E"/>
<path d="M238.315 17.1943H232.149V24.4364H227.033V30.2806H232.149V41.2404C232.149 44.5973 233.045 47.183 234.843 48.9944C236.638 50.809 239.053 51.7147 242.085 51.7147C243.342 51.7147 244.448 51.6064 245.396 51.3898V45.7097C244.842 45.8541 244.175 45.9263 243.404 45.9263C241.823 45.9263 240.582 45.5358 239.677 44.7548C238.771 43.9738 238.315 42.7663 238.315 41.1321V30.2806H245.396V24.4364H238.315V17.1943Z" fill="#1D1D1E"/>
<path d="M268.983 39.0322C268.983 41.1487 268.379 42.8452 267.165 44.1216C265.954 45.3948 264.353 46.0347 262.358 46.0347C260.382 46.0347 258.794 45.3981 257.59 44.1216C256.385 42.8485 255.785 41.152 255.785 39.0322V24.4365H249.672V39.7574C249.672 43.5441 250.669 46.5203 252.661 48.6828C254.653 50.8452 257.389 51.9281 260.874 51.9281C262.653 51.9281 264.231 51.5146 265.613 50.6877C266.994 49.8641 268.116 48.6795 268.979 47.134V51.3899H275.145V24.4365H268.979V39.0322H268.983Z" fill="#1D1D1E"/>
<path d="M302.309 29.175C301.321 27.4687 300.022 26.1594 298.404 25.2439C296.789 24.3284 294.912 23.8722 292.776 23.8722C290.424 23.8722 288.261 24.4924 286.289 25.7295C284.314 26.9666 282.752 28.6631 281.603 30.819C280.455 32.9748 279.88 35.3243 279.88 37.874C279.88 40.4236 280.455 42.7797 281.603 44.9421C282.752 47.1046 284.314 48.8109 286.289 50.0578C288.264 51.3047 290.427 51.9282 292.776 51.9282C294.912 51.9282 296.789 51.4754 298.404 50.5664C300.018 49.6608 301.321 48.3548 302.309 46.6484V51.3868H308.504V12.7778H302.309V29.175ZM299.956 43.7313C298.384 45.3031 296.432 46.0873 294.099 46.0873C291.818 46.0873 289.889 45.2932 288.31 43.705C286.729 42.1168 285.941 40.1742 285.941 37.874C285.941 35.6131 286.732 33.6869 288.31 32.0987C289.889 30.5105 291.818 29.7164 294.099 29.7164C296.432 29.7164 298.384 30.4974 299.956 32.0593C301.528 33.6213 302.312 35.5606 302.312 37.8773C302.309 40.207 301.524 42.1595 299.956 43.7313Z" fill="#1D1D1E"/>
<path d="M340.196 37.3357C340.196 34.7696 339.602 32.4497 338.417 30.3758C337.233 28.302 335.638 26.7006 333.636 25.5686C331.635 24.4365 329.429 23.8721 327.024 23.8721C324.475 23.8721 322.138 24.4824 320.009 25.7031C317.882 26.9238 316.202 28.5973 314.972 30.7236C313.741 32.85 313.127 35.1995 313.127 37.7655C313.127 40.4038 313.741 42.809 314.972 44.9813C316.202 47.1536 317.885 48.8534 320.022 50.0839C322.158 51.3144 324.527 51.928 327.132 51.928C330.453 51.928 333.279 51.065 335.615 49.3423C337.948 47.6196 339.366 45.339 339.871 42.5039H333.705C333.436 43.6523 332.704 44.5875 331.51 45.3029C330.315 46.0215 328.895 46.3792 327.241 46.3792C325.105 46.3792 323.356 45.8049 321.991 44.6565C320.625 43.508 319.746 41.9296 319.352 39.9181H340.032C340.143 39.4357 340.196 38.5727 340.196 37.3357ZM319.516 34.6679C319.966 33.014 320.816 31.731 322.076 30.8155C323.333 29.9 324.865 29.4406 326.68 29.4406C328.511 29.4406 330.04 29.923 331.27 30.8811C332.501 31.8426 333.249 33.1026 333.518 34.6646H319.516V34.6679Z" fill="#1D1D1E"/>
<path d="M31.2389 15.9542C31.0387 15.6982 30.8254 15.5571 30.5695 15.5571C30.3857 15.5703 30.2151 15.6293 30.0576 15.7278C28.1642 17.2077 25.5883 23.485 23.4685 31.7672L25.3488 31.7804C29.0502 31.823 32.8763 31.8657 36.6499 31.9215C35.6523 28.1347 34.7139 24.8894 33.8476 22.2577C32.5777 18.4316 31.7245 16.7089 31.2389 15.9542Z" fill="#1D1D1E"/>
<path d="M35.4391 0C15.8688 0 0 15.8688 0 35.4391C0 55.0094 15.8688 70.8782 35.4391 70.8782C55.0094 70.8782 70.8782 55.0094 70.8782 35.4391C70.8782 15.8688 55.0094 0 35.4391 0ZM61.5984 35.0125C61.5 35.4096 61.2572 35.7968 60.9159 36.079C60.8732 36.1085 60.8306 36.1348 60.7879 36.1643L60.7453 36.1938L60.6599 36.2496L60.5878 36.2923C60.3187 36.4334 60.0168 36.5056 59.7051 36.5056H42.9109C43.0388 37.0601 43.1963 37.7 43.3506 38.3858C44.2759 42.3563 46.7107 52.9158 49.3129 52.9158H49.3686H49.3982H49.454C51.4753 52.9158 52.5155 49.9855 54.7928 43.5639L54.8223 43.4917C55.1931 42.4679 55.6066 41.2997 56.0463 40.0626L56.1611 39.7509C56.3318 39.3374 56.801 39.1241 57.2145 39.2948C57.5131 39.4096 57.7264 39.7082 57.7264 40.0363C57.7264 40.1217 57.7132 40.1939 57.6968 40.2628L57.5984 40.5745C57.3556 41.3423 57.116 42.3826 56.8141 43.5934C55.4622 49.2013 53.4113 57.6706 48.1742 57.6706H48.1316C44.7452 57.6411 42.7238 52.2333 41.8542 49.9134C40.2332 45.5852 39.0093 40.988 37.828 36.522H22.4021L19.1995 46.7829L19.1568 46.7402C18.6744 47.495 17.6638 47.7214 16.909 47.239C16.4398 46.9404 16.1543 46.4285 16.1543 45.874V45.8182L16.3545 44.65C16.7942 42.0183 17.3356 39.2685 17.9328 36.5088H11.3865L11.3569 36.4793C10.0181 36.2791 9.09276 35.0289 9.29292 33.6901C9.45043 32.6499 10.2478 31.8263 11.2716 31.6392C11.5276 31.6097 11.7835 31.5966 12.0395 31.6097H12.3512C14.4152 31.6392 16.6072 31.6819 19.0256 31.7082C22.4284 17.8738 26.3693 10.8417 30.7533 10.8286C35.449 10.8286 38.9371 21.5161 41.7263 31.9772L41.7394 32.0199C47.4622 32.1347 53.582 32.3054 59.5147 32.732L59.7707 32.7615C59.8691 32.7615 59.9544 32.7746 60.0562 32.791H60.0857L60.1152 32.8041H60.1284C61.1423 33.0043 61.8117 34.0019 61.5984 35.0125Z" fill="#1D1D1E"/>
</svg>
