<svg width="297" height="57" viewBox="0 0 297 57" fill="none" xmlns="http://www.w3.org/2000/svg">
<path d="M296.5 36.4244C296.5 32.6015 295.682 29.2569 294.045 26.3908C292.408 23.5246 290.137 21.3166 287.231 19.7689C284.328 18.2231 281.007 17.4482 277.273 17.4482C273.539 17.4482 270.056 18.2448 267.105 19.838C264.154 21.4313 261.859 23.7064 260.222 26.6635C258.585 29.6226 257.767 33.0798 257.767 37.0391C257.767 40.9984 258.597 44.4576 260.258 47.4147C261.918 50.3738 264.223 52.649 267.174 54.2402C270.125 55.8334 273.491 56.63 277.273 56.63C280.408 56.63 283.244 56.0627 285.78 54.9241C288.317 53.7876 290.426 52.2181 292.11 50.2137C293.792 48.2113 294.956 45.9579 295.603 43.4554H283.298C282.145 45.9125 279.242 47.142 276.292 47.142C274.31 47.142 272.638 46.5173 271.278 45.2641C269.918 44.0129 269.145 42.2042 268.961 39.8381H296.294C296.433 38.6561 296.502 37.5175 296.502 36.4244H296.5ZM269.028 33.3526C269.35 31.2593 270.192 29.6444 271.552 28.5058C272.912 27.3692 274.585 26.7999 276.567 26.7999C278.55 26.7999 280.938 27.3909 282.321 28.575C283.705 29.759 284.397 31.3502 284.397 33.3526H269.028Z" fill="#1D1D1E"/>
<path d="M103.121 27.6013V54.759H114.245V32.0765C114.382 30.1611 115.912 28.6391 117.829 28.5165H126.776V17.9097H112.81C107.457 17.9097 103.119 22.2485 103.119 27.6013H103.121Z" fill="#1D1D1E"/>
<path d="M169.784 17.9639H158.198V54.7479H169.784V17.9639Z" fill="#1D1D1E"/>
<path d="M86.0805 22.1701C82.2536 19.6815 78.1718 18.8592 75.7859 18.5883C75.3353 18.533 74.8786 18.4935 74.4181 18.4737C73.9694 18.452 73.7124 18.4559 73.7124 18.4559C64.1077 18.4559 56.3196 26.5702 56.3196 36.5781C56.3196 46.5861 64.1057 54.7003 73.7124 54.7003C78.5513 54.7003 82.9277 52.6387 86.0825 49.3159V50.1698C86.12 50.1559 86.1536 50.1441 86.1951 50.1243V54.7596H97.3555V18.1812H86.0825V22.1701H86.0805ZM75.8413 44.301C71.3226 44.301 67.6598 40.7983 67.6598 36.4793C67.6598 32.1602 71.3226 28.6576 75.8413 28.6576C80.36 28.6576 84.0228 32.1602 84.0228 36.4793C84.0228 40.7983 80.36 44.301 75.8413 44.301Z" fill="#1D1D1E"/>
<path d="M198.195 18.1631H176.343V54.6981H187.44V28.77H195.77C198.015 28.9044 199.81 30.6913 199.954 32.9348V54.791H211.079V31.0471C211.079 23.931 205.311 18.1631 198.195 18.1631Z" fill="#1D1D1E"/>
<path d="M170.226 8.42594C170.797 4.91301 168.411 1.60294 164.898 1.03271C161.385 0.46248 158.075 2.84802 157.505 6.36096C156.935 9.87389 159.32 13.1839 162.833 13.7542C166.346 14.3244 169.656 11.9389 170.226 8.42594Z" fill="#1D1D1E"/>
<path d="M141.781 7.13184H130.657V44.9952C130.657 50.348 134.995 54.6868 140.348 54.6868H152.37V44.08H144.719C143.155 43.9693 141.906 42.7319 141.781 41.1723V28.5393H152.37V17.9443H141.781V7.13184Z" fill="#1D1D1E"/>
<path d="M244.473 19.7689C241.569 18.2231 238.248 17.4482 234.514 17.4482C230.78 17.4482 227.298 18.2448 224.346 19.838C221.395 21.4313 219.1 23.7064 217.464 26.6635C215.827 29.6226 215.009 33.0798 215.009 37.0391C215.009 40.9984 215.839 44.4576 217.499 47.4147C219.16 50.3738 221.464 52.649 224.416 54.2402C227.367 55.8334 230.733 56.63 234.514 56.63C237.649 56.63 240.486 56.0627 243.022 54.9241C245.558 53.7876 247.667 52.2181 249.351 50.2137C250.889 48.3833 251.988 46.3414 252.66 44.0939H240.947C239.521 46.1615 237.112 47.5215 234.376 47.5215C230.031 47.5215 226.507 44.0939 226.452 39.848H240.356V39.8401H253.536C253.674 38.658 253.744 37.5195 253.744 36.4264C253.744 32.6035 252.925 29.2589 251.289 26.3927C249.652 23.5265 247.381 21.3186 244.475 19.7708L244.473 19.7689ZM226.45 32.9652C226.503 29.5693 229.944 26.8315 234.184 26.8315C238.424 26.8315 241.866 29.5712 241.919 32.9652H226.45Z" fill="#1D1D1E"/>
<path d="M25.9835 40.5184L12.7397 8.53174H0V54.7347H10.9765V32.1926L21.3758 54.7347H30.4587L30.4646 54.7189L30.4626 54.7347L40.7908 32.3429V54.7347H51.7693V8.53174H39.0948L25.9835 40.5184Z" fill="#1D1D1E"/>
</svg>
